<?xml version="1.0" standalone="no"?>
<!DOCTYPE svg PUBLIC "-//W3C//DTD SVG 20010904//EN"
 "http://www.w3.org/TR/2001/REC-SVG-20010904/DTD/svg10.dtd">
<svg version="1.0" xmlns="http://www.w3.org/2000/svg"
 width="460.000000pt" height="460.000000pt" viewBox="0 0 460.000000 460.000000"
 preserveAspectRatio="xMidYMid meet">

<g transform="translate(0.000000,460.000000) scale(0.100000,-0.100000)"
fill="#000000" stroke="none">
<path d="M1004 3098 c89 -151 175 -299 206 -355 13 -24 26 -43 29 -43 7 0 21
21 68 103 18 31 49 85 70 120 20 34 46 80 58 102 12 22 43 75 69 118 l46 77
-98 0 -97 0 -54 -95 c-29 -52 -56 -95 -60 -95 -4 0 -31 43 -61 95 l-55 95 -97
0 -97 0 73 -122z"/>
<path d="M2167 3158 c-29 -29 -66 -72 -80 -95 -22 -35 -36 -45 -79 -58 -105
-31 -252 -112 -388 -214 -94 -71 -141 -101 -156 -98 -13 2 -26 -4 -33 -15 -9
-15 -4 -27 35 -77 25 -33 52 -62 60 -65 23 -9 27 32 5 63 -12 16 -21 34 -21
39 0 12 218 174 298 221 31 19 95 49 142 68 129 52 148 63 185 112 18 25 50
62 70 81 l36 35 22 -27 c12 -15 40 -55 61 -88 47 -73 58 -81 156 -113 41 -14
120 -45 175 -69 55 -25 130 -55 168 -67 l67 -23 0 -208 c0 -137 4 -211 11
-215 6 -4 8 -13 5 -21 -3 -7 -1 -16 4 -19 6 -4 10 5 10 19 0 14 -4 28 -10 31
-6 4 -10 57 -10 127 0 67 3 119 6 115 3 -3 6 -58 7 -123 1 -68 6 -119 12 -121
6 -2 9 44 7 128 -2 74 1 129 6 125 5 -3 7 -54 4 -113 -2 -59 0 -125 6 -145 6
-21 7 -38 2 -38 -5 0 -11 8 -13 18 -4 13 -5 12 -6 -5 0 -12 -10 -27 -21 -33
-15 -8 -20 -21 -20 -53 1 -41 23 -87 37 -74 3 4 -2 16 -12 27 -11 12 -13 20
-6 20 6 0 14 -7 17 -15 8 -21 114 -22 114 -1 0 8 -5 16 -10 18 -7 2 -4 11 5
23 16 20 16 20 10 -1 -5 -19 -1 -22 35 -26 28 -2 40 0 40 9 0 8 -12 13 -30 13
-16 0 -30 5 -30 10 0 6 12 10 26 10 14 0 34 5 45 10 23 13 23 12 4 -33 -13
-32 -17 -35 -50 -31 -32 3 -34 1 -25 -16 13 -25 13 -30 -5 -30 -8 0 -12 6 -9
13 3 10 -5 12 -31 9 -19 -2 -32 -8 -29 -13 3 -5 -2 -9 -11 -9 -9 0 -13 5 -10
10 3 6 -1 10 -10 10 -9 0 -15 -6 -13 -12 3 -9 31 -14 81 -16 42 -2 77 -5 77
-8 0 -3 -9 -22 -20 -44 -22 -43 -18 -66 12 -76 25 -8 48 18 75 83 l18 43 86 0
85 0 29 -60 c29 -60 44 -74 70 -64 20 8 19 47 -1 86 -12 23 -13 32 -4 38 9 6
9 13 1 29 -8 14 -8 21 -1 21 5 0 10 5 10 11 0 5 -4 7 -10 4 -5 -3 -10 1 -10 9
0 12 10 16 35 16 19 0 35 -4 35 -10 0 -5 -9 -10 -21 -10 -11 0 -17 -4 -14 -10
3 -5 2 -10 -3 -10 -18 0 -4 -69 22 -116 14 -25 46 -111 71 -191 25 -79 47
-149 51 -154 3 -5 -3 -9 -12 -9 -22 0 -250 62 -369 100 -87 28 -167 46 -308
71 -92 16 -97 24 -97 164 0 122 19 208 49 224 18 10 23 59 5 53 -80 -30 -104
-94 -104 -279 0 -135 0 -135 -22 -131 -19 4 -294 73 -658 165 -36 9 -87 22
-115 29 -162 40 -480 115 -535 125 -36 6 -107 22 -158 35 -52 13 -102 24 -113
24 -28 0 -39 39 -39 140 0 70 -4 96 -19 121 l-19 31 -7 -87 c-4 -48 -5 -109
-2 -136 6 -46 5 -49 -17 -49 -12 0 -45 6 -72 14 -27 8 -98 24 -159 36 -60 12
-157 35 -215 50 -58 16 -127 33 -155 38 -51 10 -426 99 -457 108 -15 4 -18 -1
-18 -30 0 -28 4 -36 18 -36 16 0 326 -73 612 -145 74 -19 184 -41 243 -50 60
-8 111 -17 115 -19 8 -5 341 -83 535 -126 143 -31 543 -129 947 -230 211 -53
315 -76 575 -126 44 -8 130 -30 190 -49 164 -51 311 -89 495 -130 248 -55 456
-105 545 -131 78 -22 298 -74 317 -74 5 0 8 14 6 31 l-3 32 -125 29 c-69 16
-163 39 -210 53 -127 35 -525 125 -555 125 -2 0 -6 12 -10 27 -3 15 -24 68
-45 118 -61 147 -66 166 -44 181 11 7 25 18 32 24 9 8 12 77 12 283 -1 286 -1
291 -47 315 -29 16 -38 15 -24 -2 9 -11 8 -15 -6 -20 -15 -6 -15 -8 -3 -16 12
-8 10 -10 -7 -10 -17 0 -21 4 -16 17 5 12 2 15 -10 10 -9 -4 -24 -10 -32 -13
-8 -3 -15 -1 -15 5 0 11 26 16 63 13 9 -1 17 3 17 8 0 6 -12 10 -27 10 -16 -1
-41 1 -58 4 -16 3 -22 3 -12 0 9 -3 17 -10 17 -15 0 -5 -100 -9 -241 -9 -160
0 -238 3 -234 10 4 6 9 8 13 6 4 -2 8 13 9 35 2 38 39 119 55 119 4 0 8 5 8
10 0 7 -34 10 -92 10 -103 -2 -133 7 -298 80 -52 23 -137 57 -189 76 -52 19
-100 38 -107 42 -14 8 -95 116 -114 153 -34 63 -65 63 -133 -3z m808 -508 c37
0 37 0 22 -24 -9 -13 -18 -35 -19 -50 -6 -41 -16 -41 -14 0 1 28 -3 38 -16 42
-10 2 -15 9 -12 14 3 5 -3 12 -15 15 -12 3 -21 9 -21 15 0 5 8 4 19 -2 11 -5
36 -10 56 -10z m-60 -19 c3 -5 1 -12 -5 -16 -5 -3 -10 1 -10 9 0 18 6 21 15 7z
m720 -39 c-3 -3 -11 0 -18 6 -8 7 -17 9 -21 5 -4 -4 -4 0 -1 9 6 15 8 15 25 0
11 -9 17 -18 15 -20z m-605 8 c8 -5 11 -10 5 -10 -5 0 -17 5 -25 10 -8 5 -10
10 -5 10 6 0 17 -5 25 -10z m204 -5 c-4 -8 -19 -15 -34 -15 -16 0 -32 -5 -35
-10 -11 -17 20 -39 46 -33 14 3 21 2 16 -3 -9 -9 -14 -11 -46 -13 -12 0 -22
-10 -24 -23 -5 -21 -5 -20 -4 2 2 37 -11 54 -29 39 -12 -10 -13 -9 -7 6 10 28
39 53 65 58 47 9 58 7 52 -8z m251 -5 c1 -25 -24 -43 -49 -36 -24 6 -28 19
-14 42 11 17 63 12 63 -6z m-145 -26 c0 -8 4 -14 9 -14 5 0 12 -7 15 -16 3 -8
2 -12 -4 -9 -13 8 -13 -5 0 -25 8 -12 10 -12 16 3 3 9 15 17 26 17 16 0 18 -4
12 -22 -4 -13 -13 -27 -20 -33 -7 -5 -14 -32 -16 -60 -2 -39 0 -50 12 -51 36
-3 40 -5 40 -21 -1 -17 -2 -17 -14 0 -9 12 -16 14 -21 8 -3 -6 1 -19 10 -28
14 -14 18 -14 26 -2 5 8 9 22 9 32 0 9 7 17 16 17 11 0 14 -8 12 -32 -2 -18
-7 -33 -13 -33 -5 -1 -20 -6 -33 -13 -12 -7 -21 -9 -20 -5 2 4 -8 26 -22 48
-21 33 -24 51 -22 101 2 45 -2 65 -13 74 -8 7 -15 25 -15 41 0 16 -4 29 -10
29 -5 0 -10 7 -10 16 0 14 3 14 15 4 8 -7 15 -19 15 -26z m-299 4 c0 -7 2 -26
4 -43 5 -45 -5 -85 -21 -85 -10 0 -14 12 -14 40 0 22 4 40 10 40 5 0 7 13 4
30 -4 19 -2 30 5 30 6 0 11 -6 12 -12z m66 6 c-3 -3 -12 -4 -19 -1 -8 3 -5 6
6 6 11 1 17 -2 13 -5z m498 -16 l-6 -23 20 24 c18 19 21 20 21 6 0 -27 -31
-46 -47 -29 -12 11 -12 16 -1 28 18 21 20 20 13 -6z m-356 -15 c-1 -22 -3 -24
-6 -7 -3 17 -10 21 -26 17 -18 -4 -19 -3 -7 6 26 19 40 12 39 -16z m211 -32
c0 -5 3 -23 6 -40 6 -29 4 -31 -20 -31 -24 0 -26 3 -20 23 4 12 11 25 17 28 5
4 6 12 3 18 -4 6 -2 11 3 11 6 0 11 -4 11 -9z m90 5 c0 -3 -4 -8 -10 -11 -5
-3 -10 -1 -10 4 0 6 5 11 10 11 6 0 10 -2 10 -4z m-423 -38 c-3 -7 -5 -2 -5
12 0 14 2 19 5 13 2 -7 2 -19 0 -25z m54 -20 l-9 -33 -1 36 c-1 20 2 39 6 43
13 12 15 -10 4 -46z m114 -8 c0 -17 -6 -25 -20 -27 -16 -1 -16 -1 -2 3 9 3 17
10 17 16 0 5 -7 8 -15 4 -8 -3 -15 -1 -15 4 0 6 6 10 13 10 8 0 7 4 -3 11 -12
8 -11 10 5 7 14 -2 20 -11 20 -28z m245 -127 c0 -87 3 -176 6 -198 5 -38 5
-39 -11 -20 -9 11 -14 29 -11 39 3 11 0 26 -6 33 -7 9 -7 13 1 13 9 0 11 39 9
145 -2 80 0 145 5 145 4 0 7 -71 7 -157z m-385 127 c3 -5 1 -10 -4 -10 -6 0
-11 5 -11 10 0 6 2 10 4 10 3 0 8 -4 11 -10z m-28 -32 c-3 -8 -6 -5 -6 6 -1
11 2 17 5 13 3 -3 4 -12 1 -19z m390 -10 c-3 -7 -5 -2 -5 12 0 14 2 19 5 13 2
-7 2 -19 0 -25z m-313 -46 c-8 -20 -26 -47 -39 -60 l-24 -22 -9 32 c-5 20 -5
35 1 39 5 3 8 9 8 13 -3 23 0 30 8 16 6 -8 7 -19 4 -25 -4 -5 -3 -7 2 -3 4 4
14 3 21 -3 10 -8 14 -2 20 25 3 20 10 33 15 30 5 -3 2 -22 -7 -42z m313 6 c-3
-8 -6 -5 -6 6 -1 11 2 17 5 13 3 -3 4 -12 1 -19z m-413 -24 c3 -9 6 -25 6 -36
0 -17 -2 -18 -15 -4 -16 16 -21 56 -6 56 5 0 12 -7 15 -16z m-149 -64 c3 -5
-3 -10 -14 -10 -14 0 -21 -6 -21 -19 0 -11 -4 -22 -8 -25 -5 -3 -9 8 -9 24 0
26 7 34 39 39 4 0 10 -3 13 -9z m170 0 c-3 -5 -23 -9 -43 -9 l-37 2 40 7 c22
4 41 8 43 9 2 0 0 -3 -3 -9z m373 -17 c-10 -2 -26 -2 -35 0 -10 3 -2 5 17 5
19 0 27 -2 18 -5z m-538 -15 c0 -4 -7 -8 -15 -8 -8 0 -15 4 -15 8 0 5 7 9 15
9 8 0 15 -4 15 -9z m336 -17 c-3 -5 1 -11 8 -14 9 -4 14 -18 14 -35 -1 -26 -4
-29 -39 -30 -38 -2 -39 -1 -38 31 0 30 1 30 11 10 13 -27 38 -38 38 -17 0 8
-4 12 -10 9 -5 -3 -10 1 -10 10 0 9 5 13 11 9 8 -4 9 0 4 15 -4 13 -2 21 5 21
6 0 9 -4 6 -9z m-339 -17 c-3 -3 -12 -4 -19 -1 -8 3 -5 6 6 6 11 1 17 -2 13
-5z m16 -21 c-7 -2 -19 -2 -25 0 -7 3 -2 5 12 5 14 0 19 -2 13 -5z m518 -16
c-10 -9 -11 -8 -5 6 3 10 9 15 12 12 3 -3 0 -11 -7 -18z m-377 -12 c-4 -8 -8
-15 -10 -15 -2 0 -4 7 -4 15 0 8 4 15 10 15 5 0 7 -7 4 -15z m-87 -11 c-3 -3
-12 -4 -19 -1 -8 3 -5 6 6 6 11 1 17 -2 13 -5z"/>
<path d="M2960 2630 c0 -5 4 -10 9 -10 6 0 13 5 16 10 3 6 -1 10 -9 10 -9 0
-16 -4 -16 -10z"/>
<path d="M3141 2318 c0 -13 3 -17 6 -10 2 6 11 12 19 12 9 0 12 5 9 10 -12 19
-35 10 -34 -12z"/>
<path d="M3295 2201 c-3 -5 -1 -12 5 -16 5 -3 10 1 10 9 0 18 -6 21 -15 7z"/>
<path d="M3498 2735 c-3 -3 0 -23 6 -45 9 -35 14 -40 38 -40 26 0 28 2 22 28
-11 43 -23 62 -43 62 -10 0 -20 -2 -23 -5z"/>
<path d="M3060 2642 c0 -5 28 -7 63 -5 95 6 100 11 15 12 -43 0 -78 -3 -78 -7z"/>
<path d="M3224 2643 c9 -10 225 -10 219 0 -2 4 -54 7 -115 7 -61 0 -108 -3
-104 -7z"/>
<path d="M1862 2503 c-32 -28 -38 -67 -13 -92 27 -27 82 -28 104 -3 24 26 22
88 -2 102 -29 15 -66 12 -89 -7z"/>
<path d="M2051 2406 c-29 -34 36 -91 91 -81 26 5 46 0 83 -19 54 -29 112 -34
122 -11 8 21 1 26 -44 32 -26 3 -46 13 -65 35 -25 29 -27 30 -75 19 -45 -10
-49 -9 -66 14 -21 29 -30 31 -46 11z"/>
<path d="M2650 2250 c-41 -41 -18 -100 38 -100 42 0 71 77 40 108 -18 18 -56
14 -78 -8z"/>
<path d="M1848 1913 c7 -3 16 -2 19 1 4 3 -2 6 -13 5 -11 0 -14 -3 -6 -6z"/>
<path d="M1881 1916 c2 -2 15 -9 29 -15 24 -11 24 -11 6 3 -16 13 -49 24 -35
12z"/>
<path d="M1800 1830 c0 -5 5 -10 11 -10 5 0 7 5 4 10 -3 6 -8 10 -11 10 -2 0
-4 -4 -4 -10z"/>
<path d="M2158 1823 c6 -2 18 -2 25 0 6 3 1 5 -13 5 -14 0 -19 -2 -12 -5z"/>
<path d="M2025 1780 c-3 -5 -2 -10 4 -10 5 0 13 5 16 10 3 6 2 10 -4 10 -5 0
-13 -4 -16 -10z"/>
<path d="M2310 1770 c-18 -12 -2 -12 25 0 13 6 15 9 5 9 -8 0 -22 -4 -30 -9z"/>
<path d="M2498 1713 c7 -3 16 -2 19 1 4 3 -2 6 -13 5 -11 0 -14 -3 -6 -6z"/>
<path d="M2390 1668 c-12 -22 -12 -22 6 -6 10 10 15 20 12 24 -4 3 -12 -5 -18
-18z"/>
<path d="M2578 1647 c-3 -19 -2 -25 4 -19 6 6 8 18 6 28 -3 14 -5 12 -10 -9z"/>
<path d="M2305 1640 c3 -5 8 -10 11 -10 2 0 4 5 4 10 0 6 -5 10 -11 10 -5 0
-7 -4 -4 -10z"/>
<path d="M2422 1600 c0 -14 2 -19 5 -12 2 6 2 18 0 25 -3 6 -5 1 -5 -13z"/>
<path d="M2406 1554 c-4 -9 -4 -19 -1 -22 2 -3 7 3 11 12 4 9 4 19 1 22 -2 3
-7 -3 -11 -12z"/>
<path d="M1856 1515 c-11 -8 -16 -15 -10 -15 5 0 18 7 28 15 11 8 16 15 10 15
-5 0 -18 -7 -28 -15z"/>
<path d="M2128 1513 c7 -3 16 -2 19 1 4 3 -2 6 -13 5 -11 0 -14 -3 -6 -6z"/>
<path d="M2160 1510 c0 -5 5 -10 11 -10 5 0 7 5 4 10 -3 6 -8 10 -11 10 -2 0
-4 -4 -4 -10z"/>
<path d="M1795 1480 c-3 -6 1 -7 9 -4 18 7 21 14 7 14 -6 0 -13 -4 -16 -10z"/>
<path d="M2230 1440 c0 -5 5 -10 11 -10 5 0 7 5 4 10 -3 6 -8 10 -11 10 -2 0
-4 -4 -4 -10z"/>
<path d="M2270 1420 c0 -5 5 -10 11 -10 5 0 7 5 4 10 -3 6 -8 10 -11 10 -2 0
-4 -4 -4 -10z"/>
<path d="M1650 1390 c-13 -8 -12 -10 3 -10 9 0 17 5 17 10 0 12 -1 12 -20 0z"/>
<path d="M1788 1383 c6 -2 18 -2 25 0 6 3 1 5 -13 5 -14 0 -19 -2 -12 -5z"/>
<path d="M1637 1359 c7 -7 15 -10 18 -7 3 3 -2 9 -12 12 -14 6 -15 5 -6 -5z"/>
<path d="M1798 1353 c7 -3 16 -2 19 1 4 3 -2 6 -13 5 -11 0 -14 -3 -6 -6z"/>
<path d="M1690 1331 c0 -6 4 -13 10 -16 6 -3 7 1 4 9 -7 18 -14 21 -14 7z"/>
<path d="M1731 1328 c0 -9 -4 -25 -7 -35 -5 -14 -4 -15 5 -7 7 7 11 22 8 35
-2 13 -5 16 -6 7z"/>
<path d="M1980 1311 c0 -6 4 -13 10 -16 6 -3 7 1 4 9 -7 18 -14 21 -14 7z"/>
<path d="M2068 1313 c6 -2 10 -8 7 -13 -3 -4 5 -6 17 -2 21 5 21 6 2 13 -10 4
-23 8 -29 8 -5 -1 -4 -3 3 -6z"/>
<path d="M1825 1300 c-16 -7 -17 -9 -3 -9 9 -1 20 4 23 9 7 11 7 11 -20 0z"/>
<path d="M2028 1303 c7 -3 16 -2 19 1 4 3 -2 6 -13 5 -11 0 -14 -3 -6 -6z"/>
<path d="M1687 1278 c-8 -30 -1 -35 12 -9 6 11 7 22 2 25 -5 3 -11 -4 -14 -16z"/>
<path d="M1830 1271 c0 -10 19 -25 25 -20 1 2 -3 10 -11 17 -8 7 -14 8 -14 3z"/>
<path d="M1925 1270 c27 -12 43 -12 25 0 -8 5 -22 9 -30 9 -10 0 -8 -3 5 -9z"/>
<path d="M1922 1240 c7 -11 16 -20 20 -20 15 0 8 15 -12 28 -19 12 -20 11 -8
-8z"/>
<path d="M2026 1235 c4 -8 10 -12 15 -9 11 6 2 24 -11 24 -5 0 -7 -7 -4 -15z"/>
<path d="M2270 1233 c5 -2 8 -9 4 -14 -3 -5 0 -9 6 -9 15 0 7 23 -8 26 -7 1
-8 0 -2 -3z"/>
<path d="M2011 1214 c0 -11 3 -14 6 -6 3 7 2 16 -1 19 -3 4 -6 -2 -5 -13z"/>
<path d="M1873 1175 c-8 -23 0 -24 20 -3 14 15 15 18 2 18 -9 0 -18 -7 -22
-15z"/>
<path d="M1906 1162 c-3 -5 1 -9 9 -9 8 0 12 4 9 9 -3 4 -7 8 -9 8 -2 0 -6 -4
-9 -8z"/>
<path d="M1964 1158 c-3 -4 0 -16 5 -25 7 -13 10 -14 11 -4 0 8 8 20 18 27 16
12 15 13 -6 11 -13 -1 -26 -5 -28 -9z"/>
<path d="M2178 1153 c6 -2 18 -2 25 0 6 3 1 5 -13 5 -14 0 -19 -2 -12 -5z"/>
<path d="M2068 1133 c7 -3 16 -2 19 1 4 3 -2 6 -13 5 -11 0 -14 -3 -6 -6z"/>
<path d="M1860 1110 c0 -4 9 -10 20 -13 11 -3 20 -2 20 3 0 4 -9 10 -20 13
-11 3 -20 2 -20 -3z"/>
<path d="M2070 1102 c0 -5 7 -9 15 -9 8 0 15 4 15 9 0 4 -7 8 -15 8 -8 0 -15
-4 -15 -8z"/>
<path d="M1855 1080 c-3 -5 -1 -10 4 -10 6 0 11 5 11 10 0 6 -2 10 -4 10 -3 0
-8 -4 -11 -10z"/>
</g>
</svg>
